<?xml version="1.0" standalone="no"?><!DOCTYPE svg PUBLIC "-//W3C//DTD SVG 1.1//EN" "http://www.w3.org/Graphics/SVG/1.1/DTD/svg11.dtd"><svg t="1576049370200" class="icon" viewBox="0 0 1024 1024" version="1.1" xmlns="http://www.w3.org/2000/svg" p-id="831" xmlns:xlink="http://www.w3.org/1999/xlink" width="200" height="200"><defs><style type="text/css"></style></defs><path d="M867.182331 996.905016c-5.587138 19.155901-23.944876 29.532014-42.302615 26.339364-19.155901-4.788975-30.330177-23.944876-25.541201-41.504452l41.504452-170.806784L840.842968 454.154487c0-15.165088-7.183463-23.944876-15.963251-27.935689-4.788975-1.596325-8.779788-2.394488-14.366926-2.394488-4.788975 0-9.577951 0.798163-13.568763 2.394488-8.779788 3.19265-15.963251 12.770601-16.761413 26.339364l0 0.798163 0 0.798163 0 39.109965c0 19.155901-15.963251 35.119152-35.119152 35.119152s-34.320989-15.963251-34.320989-35.119152c0-30.330177 0-61.458516 0-91.788692 0-14.366926-7.981625-23.944876-16.761413-27.137526-3.990813-1.596325-8.779788-3.19265-13.568763-3.19265-5.587138 0-9.577951 1.596325-14.366926 3.19265-8.779788 3.19265-15.963251 11.972438-16.761413 25.541201l0 1.596325 0 91.788692c0 19.155901-15.963251 35.119152-35.119152 35.119152s-34.320989-15.963251-34.320989-35.119152c0-130.898657 0-261.797314 0-392.695971 0-14.366926-7.981625-23.944876-17.559576-27.137526-3.990813-2.394488-8.779788-3.19265-14.366926-3.19265-4.788975 0-9.577951 0.798163-14.366926 3.19265-9.577951 3.19265-16.761413 12.770601-16.761413 27.137526 0 130.100494 0 260.999151 0 392.695971 0 19.155901-15.963251 35.119152-35.119152 35.119152s-34.320989-15.963251-34.320989-35.119152l0-95.779505 0-0.798163c-1.596325-13.568763-7.981625-23.146714-17.559576-27.137526l0 0c-3.990813-1.596325-8.779788-2.394488-14.366926-2.394488-4.788975 0-9.577951 0.798163-14.366926 2.394488C392.275619 374.338232 384.293993 383.11802 384.293993 397.484946L384.293993 766.236041c0 19.155901-15.165088 35.119152-34.320989 35.119152-15.165088 0-27.935689-10.376113-32.724664-23.944876l-73.430954-204.329611c-4.788975-15.963251-17.559576-23.146714-28.733852-23.944876L216.679859 549.135829c-4.788975 0-9.577951 0-13.568763 2.394488l-0.798163 0c-3.990813 1.596325-7.183463 3.19265-10.376113 5.587138l0 0.798163c-6.3853 5.587138-9.577951 14.366926-5.587138 26.339364l69.440141 210.714911 14.366926 25.541201L384.293993 967.373002c11.174276 15.165088 8.779788 37.513639-7.183463 48.687915-14.366926 12.770601-36.715477 9.577951-48.687915-5.587138l-114.137244-150.054558-3.19265-3.990813-15.963251-28.733852c-1.596325-2.394488-3.19265-4.788975-3.990813-6.3853L120.102192 606.603532c-14.366926-42.302615-0.798163-78.219929 25.541201-101.366643 10.376113-9.577951 22.348551-15.963251 35.917314-20.752226l0 0.798163c11.972438-4.788975 25.541201-5.587138 38.311802-5.587138l0.798163 0 1.596325 0 0.798163 0c35.917314 2.394488 72.632791 23.944876 90.192367 69.440141l5.587138 16.761413L318.844665 396.686784c0-47.889753 27.137526-79.018092 60.660353-91.788692 13.568763-5.587138 26.339364-7.981625 39.908127-7.981625 10.376113 0 20.752226 1.596325 31.128339 4.788975L450.541484 100.56848c0-47.09159 26.339364-79.816254 59.862191-92.586855 13.568763-5.587138 26.339364-7.981625 39.908127-7.981625s27.137526 2.394488 39.908127 7.981625c34.320989 12.770601 60.660353 45.495265 60.660353 92.586855l0 204.329611c9.577951-3.19265 20.752226-4.788975 30.330177-4.788975 13.568763 0 27.137526 2.394488 39.908127 7.981625 23.146714 8.779788 43.100777 26.339364 53.47689 51.880565 12.770601-4.788975 24.743039-6.3853 37.513639-6.3853 13.568763 0 27.935689 2.394488 39.908127 7.183463 33.522827 13.568763 60.660353 44.697102 60.660353 92.586855L912.677596 814.125793c0 2.394488-0.798163 5.587138-1.596325 7.981625L867.182331 996.905016 867.182331 996.905016z" p-id="832"></path></svg>