<?xml version="1.0" standalone="no"?><!DOCTYPE svg PUBLIC "-//W3C//DTD SVG 1.1//EN" "http://www.w3.org/Graphics/SVG/1.1/DTD/svg11.dtd"><svg t="1576049357460" class="icon" viewBox="0 0 1024 1024" version="1.1" xmlns="http://www.w3.org/2000/svg" p-id="715" xmlns:xlink="http://www.w3.org/1999/xlink" width="200" height="200"><defs><style type="text/css"></style></defs><path d="M398.219607 956.643939c-184.79068 0-335.110267-150.319587-335.110267-335.110267 0-20.580734 16.653285-37.234019 37.234019-37.234019s37.234019 16.653285 37.234019 37.234019c0 143.701866 116.939339 260.641205 260.641205 260.641205 45.815465 0 90.868567-12.036128 130.284275-34.834366 17.816784-10.363022 40.616046-4.253884 50.870598 13.5629 10.327206 17.816784 4.218068 40.580231-13.5629 50.870598C515.050476 941.117314 457.126228 956.643939 398.219607 956.643939z" p-id="716"></path><path d="M689.696098 844.939835c-9.526981 0-19.053961-3.635807-26.325575-10.908444-14.545274-14.545274-14.545274-38.1069 0-52.652174l210.644511-210.644511c7.054673-7.017834 10.908444-16.362666 10.908444-26.325575 0-9.927093-3.89061-19.271926-10.908444-26.325575-14.145162-14.072507-38.616506-14.072507-52.615335 0l-98.940406 98.904591c-14.544251 14.544251-38.1069 14.544251-52.652174 0-14.544251-14.544251-14.544251-38.1069 0-52.652174l98.904591-98.904591c42.070164-42.143842 115.740024-42.216497 157.955498 0 21.090341 21.090341 32.725332 49.161676 32.725332 78.977749 0 29.852912-11.636015 57.924247-32.725332 79.014588L716.021673 834.031391C708.750059 841.304028 699.223079 844.939835 689.696098 844.939835z" p-id="717"></path><path d="M547.157731 509.829568c-20.580734 0-37.234019-16.653285-37.234019-37.234019L509.923712 174.7193c0-20.544919-16.690124-37.234019-37.235043-37.234019-20.544919 0-37.234019 16.690124-37.234019 37.234019l0 297.876248c0 20.580734-16.653285 37.234019-37.235043 37.234019s-37.234019-16.653285-37.234019-37.234019L360.985588 174.7193c0-61.596893 50.106188-111.703081 111.703081-111.703081s111.703081 50.106188 111.703081 111.703081l0 297.876248C584.392774 493.175259 567.738465 509.829568 547.157731 509.829568z" p-id="718"></path><path d="M100.343359 658.767692c-20.580734 0-37.234019-16.653285-37.234019-37.234019L63.10934 509.829568c0-61.596893 50.106188-111.703081 111.703081-111.703081 19.890003 0 38.616506 5.236258 54.797024 14.398942 19.890003-31.016411 54.651714-51.633984 94.1411-51.633984 61.596893 0 111.703081 50.106188 111.703081 111.703081 0 20.580734-16.653285 37.234019-37.235043 37.234019s-37.234019-16.653285-37.234019-37.234019c0-20.544919-16.690124-37.234019-37.234019-37.234019-20.544919 0-37.234019 16.690124-37.234019 37.234019l0 37.234019c0 20.580734-16.653285 37.235043-37.235043 37.235043s-37.234019-16.653285-37.234019-37.235043c0-20.544919-16.690124-37.234019-37.234019-37.234019s-37.234019 16.690124-37.234019 37.234019l0 111.703081C137.578402 642.113383 120.924093 658.767692 100.343359 658.767692z" p-id="719"></path><path d="M696.095855 621.532649c-20.580734 0-37.234019-16.653285-37.234019-37.234019L658.861836 472.594525c0-20.544919-16.690124-37.234019-37.234019-37.234019s-37.234019 16.690124-37.234019 37.234019c0 20.580734-16.653285 37.234019-37.234019 37.234019s-37.234019-16.653285-37.234019-37.234019c0-61.596893 50.106188-111.703081 111.703081-111.703081s111.703081 50.106188 111.703081 111.703081l0 111.703081C733.329874 604.879364 716.676589 621.532649 696.095855 621.532649z" p-id="720"></path></svg>